# xmcd
#
# Track frame offsets:
#	150
#	23914
#	42839
#	66615
#	87076
#	106714
#	127567
#	149357
#	170620
#	193089
#	217071
#	238222
#	259863
#	279546
#	299606
#	321664
#
# Disc length: 4575 seconds
#
# Revision: 0
# Processed by: cddbd v1.5.2PL0 Copyright (c) Steve Scherf et al.
# Submitted via: EasyCDDAExtractor 12.0.0.1
#
DISCID=fd11dd10
DTITLE=La Playa - Compilaciones Var I
DYEAR=1900
DGENRE=
TTITLE0=Nereidas
TTITLE1=Veracruz campeon
TTITLE2=Maru y Fredi
TTITLE3=Danzones de lara
TTITLE4=Canto Mambi
TTITLE5=Lunes cubano
TTITLE6=Bella epoca
TTITLE7=Almendra
TTITLE8=A la orilla del mar
TTITLE9=El que siembra su maiz
TTITLE10=Moctezuma
TTITLE11=Danzon para un amigo
TTITLE12=El chelo
TTITLE13=Meneito suave
TTITLE14=Juan va pa la guerra
TTITLE15=Ana celia
EXTD=
EXTT0=
EXTT1=
EXTT2=
EXTT3=
EXTT4=
EXTT5=
EXTT6=
EXTT7=
EXTT8=
EXTT9=
EXTT10=
EXTT11=
EXTT12=
EXTT13=
EXTT14=
EXTT15=
PLAYORDER=
